# xmcd CD database file generated by Grip 3.2.0
# 
# Track frame offsets:
#       150
#       13375
#       36952
#       50362
#       60450
#       75030
#       90372
#       103880
#       118962
#       133050
#       146530
#       167335
#       192462
#       204295
#       220817
#       241360
#       263165
#       283827
#       307140
#       317635
# 
# Disc length: 4416 seconds
# 
# Revision: 1
# Processed by: cddbd v1.5.2PL0 Copyright (c) Steve Scherf et al.
# Submitted via: Grip 3.2.0
# 
DISCID=20113e14
DTITLE=Various Artist - The Very Best Of Dixieland Jazz
DYEAR=1996
DGENRE=Jazz
TTITLE0=Eddie Condon And His Chicagoans - Chicago
TTITLE1=Jack Teargarden with the Henry "Red" Allen Band - Basin Street Blues
TTITLE2=The Monty Sunshine Trio - Wild Cat Blues
TTITLE3=Rita Reys and the Dutch Swing College Band - Lazy River
TTITLE4=Kid Ory and his band - Tiger Rag
TTITLE5=Nat Gonella with the Ted Easton Band - Oh Mo'nah
TTITLE6=The Six - Riverboat Shuffle
TTITLE7=Ken Coyler's Jazzmen - Goin' Home
TTITLE8=Turk Murphy and his Band - Dippermouth Blues
TTITLE9=Old Merry Tale Jazz Band - Am Sonntag will mein Süßer mit mir Segeln
TTITLE9=geh'n
TTITLE10=Roy Eldridge and his Central Plaza Dixilanders - Ja-Da
TTITLE11=Roy Eldridge and his Central Plaza Dixilanders - That's a Plenty
TTITLE12=Rita Reya and the Dutch Swing College Band - Goody Goody
TTITLE13=Mr. Acker Bilk - Summer Set
TTITLE14=Chris Barber's Jazzband - Ice Cream
TTITLE15=Eddie Condon and his Boys - St. Louis Blies
TTITLE16=Kid Ory and his Band - Atlanta Blues
TTITLE17=Henry "Red" Allen and his Band - Honey Suckle Rose
TTITLE18=Louis Armstrong and Bing Crosby - Let's Sing Like a Dixiland Band
TTITLE19=Lu Watters' Yerba Buena Jazz Band - Blues My Naughty Sweetie Gives toM
TTITLE19=e
EXTD=YEAR: 1996
EXTT0=
EXTT1=
EXTT2=
EXTT3=
EXTT4=
EXTT5=
EXTT6=
EXTT7=
EXTT8=
EXTT9=
EXTT10=
EXTT11=
EXTT12=
EXTT13=
EXTT14=
EXTT15=
EXTT16=
EXTT17=
EXTT18=
EXTT19=
PLAYORDER=
